<?xml version="1.0" standalone="no"?>
<!DOCTYPE svg PUBLIC "-//W3C//DTD SVG 20010904//EN"
 "http://www.w3.org/TR/2001/REC-SVG-20010904/DTD/svg10.dtd">
<svg version="1.0" xmlns="http://www.w3.org/2000/svg"
 width="700.000000pt" height="700.000000pt" viewBox="0 0 700.000000 700.000000"
 preserveAspectRatio="xMidYMid meet">
<metadata>
Created by potrace 1.14, written by Peter Selinger 2001-2017
</metadata>
<g transform="translate(0.000000,700.000000) scale(0.100000,-0.100000)"
fill="#000000" stroke="none">
<path d="M3278 6996 c-1 -2 -39 -6 -83 -10 -396 -30 -841 -153 -1210 -332
-180 -87 -448 -247 -555 -331 -8 -6 -51 -40 -95 -74 -353 -275 -673 -651 -897
-1054 -48 -86 -148 -289 -148 -301 0 -2 -11 -27 -24 -56 -60 -133 -155 -432
-181 -569 -3 -13 -11 -58 -20 -99 -22 -115 -30 -160 -41 -255 -26 -230 -26
-667 1 -826 2 -13 6 -46 9 -74 9 -78 22 -152 51 -285 21 -96 91 -339 114 -395
5 -11 25 -65 46 -120 50 -132 181 -398 250 -508 30 -49 55 -92 55 -97 0 -4 3
-10 8 -12 4 -2 33 -41 64 -88 99 -148 249 -328 406 -486 355 -357 818 -650
1289 -818 76 -27 259 -84 289 -90 10 -2 57 -13 104 -25 109 -26 200 -43 299
-57 25 -3 57 -8 71 -10 163 -25 682 -25 842 1 13 2 46 7 73 10 71 10 87 13
115 18 14 3 43 8 65 12 115 21 311 73 455 122 558 189 1090 542 1480 982 36
41 70 79 76 85 6 6 48 61 94 121 150 197 277 405 383 628 26 53 47 99 47 102
0 2 11 28 24 57 57 127 151 421 182 573 17 81 54 301 59 350 4 33 9 71 11 85
9 46 11 524 4 605 -15 153 -21 210 -25 225 -2 8 -7 35 -10 60 -15 117 -78 375
-125 520 -103 312 -234 581 -416 855 -434 655 -1071 1141 -1819 1389 -162 54
-406 114 -535 131 -19 3 -46 7 -60 10 -13 2 -52 7 -86 11 -33 3 -74 8 -90 10
-32 5 -540 14 -546 10z m462 -810 c42 -4 87 -8 100 -10 216 -35 185 -29 290
-54 307 -74 600 -203 860 -377 69 -46 138 -94 153 -107 215 -174 370 -330 496
-498 31 -41 58 -77 61 -80 3 -3 29 -41 57 -85 225 -349 373 -752 419 -1141 25
-210 24 -502 -1 -664 -2 -14 -6 -45 -9 -70 -3 -25 -8 -55 -10 -66 -2 -12 -7
-37 -10 -55 -4 -27 -49 -205 -70 -279 -42 -147 -151 -395 -240 -545 -136 -231
-259 -389 -447 -575 -211 -209 -445 -374 -716 -506 -84 -41 -158 -74 -166 -74
-7 0 -17 -4 -23 -9 -15 -14 -307 -106 -374 -118 -14 -2 -41 -8 -60 -13 -39
-10 -100 -20 -220 -35 -200 -26 -482 -26 -666 0 -27 4 -58 8 -69 9 -56 8 -123
20 -190 36 -27 6 -58 13 -68 15 -10 2 -57 16 -105 30 -439 134 -820 362 -1137
681 -125 127 -129 131 -215 239 -201 253 -373 586 -466 902 -33 112 -80 331
-89 416 -25 236 -25 446 -1 682 27 259 135 614 268 879 238 476 655 905 1123
1156 109 59 103 56 165 83 427 193 896 273 1360 233z"/>
<path d="M3364 5490 c-86 -24 -137 -53 -199 -115 -139 -139 -163 -358 -58
-520 58 -91 175 -172 273 -191 278 -52 523 145 522 421 -1 119 -44 217 -137
304 -107 102 -261 140 -401 101z"/>
<path d="M3087 4449 c-94 -22 -181 -98 -209 -186 -35 -106 -2 -233 78 -303 63
-55 117 -73 217 -74 80 -1 88 -3 92 -21 2 -11 3 -509 3 -1106 -1 -1159 -2
-1121 49 -1201 30 -48 106 -104 160 -117 24 -6 147 -11 286 -11 280 0 307 5
386 76 121 109 129 293 16 410 -59 62 -138 90 -253 89 l-71 0 0 1097 c0 954
-2 1105 -15 1151 -17 60 -50 108 -98 144 -73 54 -85 56 -353 58 -137 1 -267
-1 -288 -6z"/>
</g>
</svg>
