<?xml version="1.0" encoding="UTF-8"?>
<svg id="Layer_2" data-name="Layer 2" xmlns="http://www.w3.org/2000/svg" viewBox="0 0 286.88 286.88">
  <defs>
    <style>
      .cls-1 {
        fill: #0061a6;
      }

      .cls-2 {
        stroke-miterlimit: 10;
        stroke-width: 13px;
      }

      .cls-2, .cls-3 {
        fill: none;
        stroke: #0061a6;
      }

      .cls-3 {
        stroke-linecap: round;
        stroke-linejoin: round;
        stroke-width: 7px;
      }
    </style>
  </defs>
  <g id="Layer_1-2" data-name="Layer 1">
    <g>
      <rect class="cls-2" x="6.5" y="6.5" width="273.88" height="273.88"/>
      <g>
        <path class="cls-3" d="M209.81,74.99H114.29m-55.84,35.88v-35.88h39.98m130.02,.49v61.32H114.29m-55.84-8.74v8.74h39.98"/>
        <polygon class="cls-3" points="114.29 150.53 124.2 150.53 124.2 164.91 86.52 164.91 86.52 150.53 98.42 150.53 98.42 61.28 86.52 61.28 86.52 46.91 124.2 46.91 124.2 61.28 114.29 61.28 114.29 150.53"/>
        <line class="cls-3" x1="135.53" y1="125.39" x2="167.61" y2="125.39"/>
        <line class="cls-3" x1="184.41" y1="125.39" x2="216.49" y2="125.39"/>
      </g>
      <g>
        <path class="cls-1" d="M65.95,238.39c-1.68,.8-5.43,1.67-10.12,1.67-14.41,0-21.71-9.65-21.71-22.51,0-15.88,10.52-23.85,22.71-23.85,4.62,0,8.11,.87,9.65,1.74l-1.94,7.91c-1.74-.8-4.09-1.47-7.24-1.47-7.1,0-12.86,4.69-12.86,15.08,0,9.58,4.96,14.81,12.93,14.81,2.61,0,5.49-.47,7.24-1.21l1.34,7.84Z"/>
        <path class="cls-1" d="M100.39,222.78c0,12.53-8.17,17.35-15.81,17.35-9.04,0-15.61-6.23-15.61-16.88s6.7-17.29,16.08-17.29,15.34,6.83,15.34,16.82Zm-21.51,.27c0,5.63,1.94,9.98,5.96,9.98,3.62,0,5.56-4.42,5.56-9.98,0-4.76-1.47-9.98-5.63-9.98s-5.9,5.23-5.9,9.98Z"/>
        <path class="cls-1" d="M106.28,216.95c0-3.95-.13-7.3-.27-10.25h8.51l.47,4.29h.13c1.47-2.28,4.62-5.03,9.51-5.03,6.57,0,10.85,4.62,10.85,13.6v19.9h-9.85v-18.89c0-3.75-1.21-6.57-4.56-6.57-2.41,0-3.95,1.68-4.62,3.55-.27,.67-.4,1.67-.4,2.68v19.23h-9.78v-22.51Z"/>
        <path class="cls-1" d="M153.65,197.46v9.25h7.1v7.1h-7.1v12.8c0,3.95,1.21,5.49,3.82,5.49,1.21,0,2.14-.13,2.81-.27l.13,7.44c-1.34,.47-3.55,.8-6.23,.8-3.08,0-5.7-.94-7.3-2.61-1.88-1.88-2.81-4.82-2.81-9.58v-14.07h-4.22v-7.1h4.22v-6.97l9.58-2.28Z"/>
        <path class="cls-1" d="M173.35,226.33c.27,4.49,4.09,6.43,8.58,6.43,3.15,0,5.76-.47,8.17-1.27l1.34,6.7c-3.08,1.21-6.97,1.88-11.06,1.88-10.45,0-16.35-6.3-16.35-16.48,0-9.18,5.36-17.62,15.48-17.62,9.58,0,13.6,7.5,13.6,16.15,0,1.94-.13,3.35-.33,4.22h-19.43Zm10.72-6.77c.07-2.95-1.07-6.9-5.09-6.9s-5.43,4.02-5.63,6.9h10.72Z"/>
        <path class="cls-1" d="M198.81,216.95c0-3.95-.13-7.3-.27-10.25h8.51l.47,4.29h.13c1.47-2.28,4.62-5.03,9.51-5.03,6.57,0,10.85,4.62,10.85,13.6v19.9h-9.85v-18.89c0-3.75-1.21-6.57-4.56-6.57-2.41,0-3.95,1.68-4.62,3.55-.27,.67-.4,1.67-.4,2.68v19.23h-9.78v-22.51Z"/>
        <path class="cls-1" d="M246.18,197.46v9.25h7.1v7.1h-7.1v12.8c0,3.95,1.21,5.49,3.82,5.49,1.21,0,2.14-.13,2.81-.27l.13,7.44c-1.34,.47-3.55,.8-6.23,.8-3.08,0-5.7-.94-7.3-2.61-1.88-1.88-2.81-4.82-2.81-9.58v-14.07h-4.22v-7.1h4.22v-6.97l9.58-2.28Z"/>
      </g>
    </g>
  </g>
</svg>