<?xml version="1.0" encoding="UTF-8"?>
<svg id="Layer_2" data-name="Layer 2" xmlns="http://www.w3.org/2000/svg" viewBox="0 0 286.88 286.88">
  <defs>
    <style>
      .cls-1 {
        fill: #0062a7;
      }

      .cls-2 {
        stroke-miterlimit: 10;
        stroke-width: 13px;
      }

      .cls-2, .cls-3 {
        fill: none;
        stroke: #0062a7;
      }

      .cls-3 {
        stroke-linecap: round;
        stroke-linejoin: round;
        stroke-width: 7px;
      }
    </style>
  </defs>
  <g id="Outlines">
    <g id="function">
      <rect class="cls-2" x="6.5" y="6.5" width="273.88" height="273.88"/>
      <g>
        <path class="cls-1" d="M27.33,195.37h25.13v7.63h-15.8v9.4h14.76v7.56h-14.76v16.53h-9.33v-41.12Z"/>
        <path class="cls-1" d="M85.59,226.91c0,3.9,.12,7.08,.24,9.58h-8.05l-.43-4.21h-.18c-1.16,1.83-3.97,4.88-9.33,4.88-6.04,0-10.49-3.78-10.49-12.99v-17.51h9.33v16.04c0,4.33,1.4,6.95,4.64,6.95,2.56,0,4.03-1.77,4.64-3.23,.24-.55,.31-1.28,.31-2.01v-17.75h9.33v20.25Z"/>
        <path class="cls-1" d="M93.03,216.17c0-3.72-.12-6.89-.24-9.52h8.05l.43,4.09h.18c1.22-1.89,4.27-4.76,9.21-4.76,6.1,0,10.68,4.03,10.68,12.81v17.69h-9.27v-16.53c0-3.84-1.34-6.47-4.7-6.47-2.56,0-4.09,1.77-4.7,3.48-.24,.55-.37,1.46-.37,2.32v17.2h-9.27v-20.31Z"/>
        <path class="cls-1" d="M151.16,235.76c-1.65,.73-4.76,1.34-8.3,1.34-9.64,0-15.8-5.86-15.8-15.25,0-8.72,5.98-15.86,17.08-15.86,2.44,0,5.12,.43,7.08,1.16l-1.46,6.89c-1.1-.49-2.75-.92-5.19-.92-4.88,0-8.05,3.48-7.99,8.36,0,5.49,3.66,8.36,8.17,8.36,2.2,0,3.9-.37,5.31-.92l1.1,6.83Z"/>
        <path class="cls-1" d="M167.63,198.12v8.54h6.65v6.83h-6.65v10.8c0,3.6,.85,5.25,3.66,5.25,1.16,0,2.07-.12,2.75-.24l.06,7.02c-1.22,.49-3.42,.79-6.04,.79-2.99,0-5.49-1.04-6.96-2.56-1.71-1.77-2.56-4.64-2.56-8.85v-12.2h-3.97v-6.83h3.97v-6.47l9.09-2.07Z"/>
        <path class="cls-1" d="M189.22,198.36c0,2.56-1.95,4.64-5,4.64s-4.88-2.07-4.82-4.64c-.06-2.68,1.89-4.7,4.88-4.7s4.88,2.01,4.94,4.7Zm-9.58,38.13v-29.83h9.27v29.83h-9.27Z"/>
        <path class="cls-1" d="M225.82,221.24c0,10.92-7.75,15.92-15.74,15.92-8.72,0-15.43-5.73-15.43-15.37s6.34-15.8,15.92-15.8,15.25,6.28,15.25,15.25Zm-21.6,.3c0,5.12,2.13,8.97,6.1,8.97,3.6,0,5.92-3.6,5.92-8.97,0-4.45-1.71-8.97-5.92-8.97-4.45,0-6.1,4.58-6.1,8.97Z"/>
        <path class="cls-1" d="M231.55,216.17c0-3.72-.12-6.89-.24-9.52h8.05l.43,4.09h.18c1.22-1.89,4.27-4.76,9.21-4.76,6.1,0,10.68,4.03,10.68,12.81v17.69h-9.27v-16.53c0-3.84-1.34-6.47-4.7-6.47-2.56,0-4.09,1.77-4.7,3.48-.24,.55-.37,1.46-.37,2.32v17.2h-9.27v-20.31Z"/>
      </g>
      <g>
        <line class="cls-3" x1="127.75" y1="73.15" x2="228.44" y2="73.15"/>
        <line class="cls-3" x1="127.75" y1="138.67" x2="228.44" y2="138.67"/>
        <rect class="cls-3" x="58.44" y="46.91" width="52.77" height="52.48"/>
        <rect class="cls-3" x="58.44" y="112.43" width="52.77" height="52.48"/>
      </g>
    </g>
  </g>
</svg>