<?xml version="1.0" encoding="UTF-8"?>
<svg id="Layer_2" data-name="Layer 2" xmlns="http://www.w3.org/2000/svg" viewBox="0 0 286.88 286.88">
  <defs>
    <style>
      .cls-1 {
        fill: #0061a6;
      }

      .cls-2 {
        stroke-miterlimit: 10;
        stroke-width: 13px;
      }

      .cls-2, .cls-3, .cls-4 {
        fill: none;
        stroke: #0061a6;
      }

      .cls-3 {
        stroke-width: 7px;
      }

      .cls-3, .cls-4 {
        stroke-linecap: round;
        stroke-linejoin: round;
      }

      .cls-4 {
        stroke-width: 3px;
      }
    </style>
  </defs>
  <g id="Buttons">
    <g id="Function">
      <rect class="cls-2" x="6.5" y="6.5" width="273.88" height="273.88"/>
      <g>
        <rect class="cls-3" x="58.44" y="50.7" width="170" height="28.84"/>
        <polygon class="cls-4" points="210.97 62.27 216.59 62.27 213.78 67.98 210.97 62.27"/>
        <rect class="cls-3" x="88.07" y="79.55" width="140.37" height="21.98"/>
        <rect class="cls-3" x="88.07" y="101.94" width="140.37" height="21.98"/>
        <rect class="cls-3" x="88.07" y="124.33" width="140.37" height="21.98"/>
        <rect class="cls-3" x="88.07" y="146.72" width="140.37" height="21.98"/>
      </g>
      <g>
        <path class="cls-1" d="M23.51,191.66h25.19v8.11h-15.41v10.79h14.41v7.97h-14.41v18.29h-9.78v-45.16Z"/>
        <path class="cls-1" d="M82.94,226.43c0,4.09,.13,7.57,.27,10.38h-8.44l-.47-4.29h-.2c-1.34,2.08-4.29,4.96-9.38,4.96-6.57,0-10.72-4.29-10.72-14v-19.43h9.78v17.96c0,4.69,1.34,7.5,4.62,7.5,2.35,0,3.82-1.68,4.36-3.15,.27-.6,.4-1.47,.4-2.34v-19.97h9.78v22.38Z"/>
        <path class="cls-1" d="M90.58,214.31c0-3.95-.13-7.3-.27-10.25h8.51l.47,4.29h.13c1.47-2.28,4.62-5.03,9.51-5.03,6.57,0,10.85,4.62,10.85,13.6v19.9h-9.85v-18.89c0-3.75-1.21-6.57-4.56-6.57-2.41,0-3.95,1.68-4.62,3.55-.27,.67-.4,1.67-.4,2.68v19.23h-9.78v-22.51Z"/>
        <path class="cls-1" d="M149.94,236.08c-1.54,.74-4.62,1.34-8.11,1.34-9.92,0-16.21-6.23-16.21-16.68,0-9.78,6.36-17.35,17.62-17.35,2.48,0,5.16,.47,6.9,1.21l-1.47,7.37c-1.07-.47-2.68-.94-4.96-.94-5.09,0-8.24,3.89-8.17,9.38,0,5.96,3.55,9.31,8.24,9.31,2.08,0,3.68-.4,5.09-.94l1.07,7.3Z"/>
        <path class="cls-1" d="M167.02,194.81v9.25h7.1v7.1h-7.1v12.8c0,3.95,1.21,5.49,3.82,5.49,1.21,0,2.14-.13,2.81-.27l.13,7.44c-1.34,.47-3.55,.8-6.23,.8-3.08,0-5.7-.94-7.3-2.61-1.88-1.88-2.81-4.82-2.81-9.58v-14.07h-4.22v-7.1h4.22v-6.97l9.58-2.28Z"/>
        <path class="cls-1" d="M189.4,195.08c.07,2.81-2.01,4.96-5.23,4.96-2.95,0-5.02-2.14-4.96-4.96-.07-2.95,2.08-5.02,5.09-5.02s5.09,2.08,5.09,5.02Zm-9.98,41.74v-32.76h9.78v32.76h-9.78Z"/>
        <path class="cls-1" d="M226.59,220.13c0,12.53-8.17,17.35-15.81,17.35-9.04,0-15.61-6.23-15.61-16.88s6.7-17.29,16.08-17.29,15.34,6.83,15.34,16.82Zm-21.51,.27c0,5.63,1.94,9.98,5.96,9.98,3.62,0,5.56-4.42,5.56-9.98,0-4.76-1.47-9.98-5.63-9.98s-5.9,5.23-5.9,9.98Z"/>
        <path class="cls-1" d="M232.48,214.31c0-3.95-.13-7.3-.27-10.25h8.51l.47,4.29h.13c1.47-2.28,4.62-5.03,9.51-5.03,6.57,0,10.85,4.62,10.85,13.6v19.9h-9.85v-18.89c0-3.75-1.21-6.57-4.56-6.57-2.41,0-3.95,1.68-4.62,3.55-.27,.67-.4,1.67-.4,2.68v19.23h-9.78v-22.51Z"/>
      </g>
    </g>
  </g>
</svg>