<?xml version="1.0" encoding="UTF-8"?>
<svg id="Layer_2" data-name="Layer 2" xmlns="http://www.w3.org/2000/svg" viewBox="0 0 584.79 345.23">
  <defs>
    <style>
      .cls-1 {
        stroke-miterlimit: 10;
      }

      .cls-1, .cls-2, .cls-3, .cls-4, .cls-5, .cls-6, .cls-7, .cls-8, .cls-9, .cls-10, .cls-11, .cls-12, .cls-13, .cls-14, .cls-15, .cls-16, .cls-17, .cls-18 {
        stroke: #fff;
      }

      .cls-1, .cls-19, .cls-20 {
        opacity: .7;
      }

      .cls-1, .cls-20 {
        fill: #fff;
      }

      .cls-2 {
        stroke-width: 1.28px;
      }

      .cls-2, .cls-3, .cls-4, .cls-5, .cls-6, .cls-7, .cls-8, .cls-9, .cls-10, .cls-11, .cls-12, .cls-13, .cls-14, .cls-15, .cls-16, .cls-17, .cls-18 {
        fill: none;
        stroke-linecap: round;
      }

      .cls-2, .cls-3, .cls-4, .cls-5, .cls-6, .cls-7, .cls-8, .cls-9, .cls-10, .cls-12, .cls-13, .cls-14, .cls-15, .cls-16, .cls-17, .cls-18 {
        stroke-linejoin: round;
      }

      .cls-3 {
        stroke-width: 4.98px;
      }

      .cls-4 {
        stroke-width: 2.46px;
      }

      .cls-5 {
        stroke-width: 1.19px;
      }

      .cls-6 {
        stroke-width: 1.18px;
      }

      .cls-7 {
        stroke-width: 1.18px;
      }

      .cls-8 {
        stroke-width: 2.69px;
      }

      .cls-9 {
        stroke-width: 2.01px;
      }

      .cls-10 {
        stroke-width: 2.44px;
      }

      .cls-11 {
        stroke-linejoin: bevel;
      }

      .cls-11, .cls-12 {
        opacity: .4;
        stroke-width: 1.25px;
      }

      .cls-13 {
        stroke-width: 3.44px;
      }

      .cls-14 {
        stroke-width: 1.33px;
      }

      .cls-15 {
        stroke-width: 3.56px;
      }

      .cls-16 {
        stroke-width: 1.65px;
      }

      .cls-17 {
        stroke-width: 2.98px;
      }

      .cls-18 {
        stroke-width: .57px;
      }
    </style>
  </defs>
  <g id="Network_Map">
    <g id="Lines">
      <line class="cls-12" x1="345.8" y1="333.39" x2="278.97" y2="262.61"/>
      <line class="cls-12" x1="413.5" y1="6.05" x2="187.14" y2="97.69"/>
      <line class="cls-12" x1="508.5" y1="87.79" x2="353.47" y2="147.71"/>
      <line class="cls-12" x1="489.58" y1="165.74" x2="362.32" y2="80.54"/>
      <line class="cls-12" x1="302.46" y1="176.07" x2="89.44" y2="245.03"/>
      <line class="cls-12" x1="128.33" y1="153.02" x2="91.87" y2="64.02"/>
      <polyline class="cls-12" points="401.44 307.35 498.42 192.77 551.79 263.49"/>
      <line class="cls-12" x1="151.86" y1="286.41" x2="131.97" y2="165.07"/>
      <line class="cls-12" x1="407.42" y1="239.46" x2="432.47" y2="24.86"/>
      <line class="cls-12" x1="313.95" y1="135.87" x2="110.1" y2="46.36"/>
      <line class="cls-12" x1="574.79" y1="98.94" x2="511.29" y2="170.18"/>
      <line class="cls-12" x1="24.1" y1="95.88" x2="45.72" y2="223.56"/>
      <line class="cls-12" x1="483.46" y1="180.49" x2="290.98" y2="254.25"/>
      <line class="cls-12" x1="220.82" y1="262.55" x2="170.8" y2="291.11"/>
      <line class="cls-11" x1="197.79" y1="119.11" x2="397.38" y2="263.68"/>
      <line class="cls-11" x1="89.44" y1="223.56" x2="341.99" y2="71.87"/>
      <line class="cls-11" x1="42.48" y1="85.65" x2="119.31" y2="153.02"/>
      <line class="cls-12" x1="508.5" y1="82.22" x2="445.81" y2="22.69"/>
      <line class="cls-12" x1="407.42" y1="269.38" x2="363.06" y2="299.08"/>
      <line class="cls-12" x1="350.51" y1="176.07" x2="523.35" y2="263.49"/>
    </g>
    <g id="Icons">
      <g id="Checkboxes" class="cls-19">
        <g>
          <line class="cls-8" x1="332.65" y1="147.37" x2="376.51" y2="147.37"/>
          <line class="cls-8" x1="332.65" y1="176.07" x2="376.51" y2="176.07"/>
          <rect class="cls-8" x="302.46" y="135.87" width="22.99" height="22.99"/>
          <rect class="cls-8" x="302.46" y="164.58" width="22.99" height="22.99"/>
        </g>
      </g>
      <g id="Checkboxes-2" data-name="Checkboxes" class="cls-19">
        <g>
          <line class="cls-6" x1="160.06" y1="291.45" x2="179.29" y2="291.45"/>
          <line class="cls-6" x1="179.29" y1="304.04" x2="160.06" y2="304.04"/>
          <rect class="cls-6" x="146.82" y="286.41" width="10.08" height="10.08"/>
          <rect class="cls-6" x="146.82" y="299" width="10.08" height="10.08"/>
        </g>
      </g>
      <g id="Radio_Buttons" data-name="Radio Buttons" class="cls-19">
        <g>
          <line class="cls-10" x1="373.38" y1="307.35" x2="413.17" y2="307.35"/>
          <line class="cls-10" x1="373.38" y1="333.39" x2="413.17" y2="333.39"/>
          <circle class="cls-10" cx="356.41" cy="307.35" r="10.62"/>
          <circle class="cls-10" cx="356.41" cy="333.39" r="10.62"/>
        </g>
      </g>
      <g id="Radio_Buttons-2" data-name="Radio Buttons" class="cls-19">
        <g>
          <line class="cls-9" x1="174.74" y1="97.69" x2="207.47" y2="97.69"/>
          <line class="cls-9" x1="207.47" y1="119.11" x2="174.74" y2="119.11"/>
          <circle class="cls-9" cx="160.78" cy="97.69" r="8.73"/>
          <circle class="cls-9" cx="160.78" cy="119.11" r="8.73"/>
        </g>
      </g>
      <g id="Radio_Buttons-3" data-name="Radio Buttons" class="cls-19">
        <g>
          <line class="cls-7" x1="536.64" y1="263.49" x2="555.82" y2="263.49"/>
          <line class="cls-7" x1="536.64" y1="276.04" x2="555.82" y2="276.04"/>
          <circle class="cls-7" cx="528.47" cy="263.49" r="5.12"/>
          <circle class="cls-7" cx="528.47" cy="276.04" r="5.12"/>
        </g>
      </g>
      <g id="Radio_Buttons-4" data-name="Radio Buttons" class="cls-19">
        <g>
          <line class="cls-7" x1="353.47" y1="67.99" x2="372.65" y2="67.99"/>
          <line class="cls-7" x1="353.47" y1="80.54" x2="372.65" y2="80.54"/>
          <path class="cls-7" d="M350.41,67.98c0,2.83-2.3,5.12-5.12,5.12-1.26,0-2.42-.46-3.31-1.23-.97-.81-1.62-1.98-1.77-3.3-.02-.19-.03-.38-.03-.59,0-2.83,2.29-5.12,5.12-5.12s5.12,2.29,5.12,5.12Z"/>
          <path class="cls-7" d="M350.41,80.54c0,2.83-2.3,5.12-5.12,5.12-2.04,0-3.8-1.18-4.61-2.91-.33-.66-.51-1.42-.51-2.21,0-1.23,.43-2.35,1.16-3.23,.92-1.15,2.35-1.88,3.95-1.88,2.82,0,5.12,2.29,5.12,5.12Z"/>
        </g>
      </g>
      <g id="Dropdown" class="cls-19">
        <g>
          <rect class="cls-17" x="16.91" y="223.56" width="72.54" height="12.09"/>
          <polygon class="cls-2" points="81.99 228.4 84.38 228.4 83.19 230.8 81.99 228.4"/>
          <g>
            <rect class="cls-17" x="29.55" y="235.65" width="59.9" height="9.21"/>
            <rect class="cls-17" x="29.55" y="245.03" width="59.9" height="9.21"/>
            <rect class="cls-17" x="29.55" y="254.42" width="59.9" height="9.21"/>
            <rect class="cls-17" x="29.55" y="263.8" width="59.9" height="9.21"/>
          </g>
        </g>
      </g>
      <g id="Dropdown-2" data-name="Dropdown" class="cls-19">
        <g>
          <rect class="cls-14" x="413.5" y=".66" width="32.31" height="5.38"/>
          <polygon class="cls-18" points="442.49 2.82 443.56 2.82 443.02 3.89 442.49 2.82"/>
          <g>
            <rect class="cls-14" x="419.13" y="6.05" width="26.68" height="4.1"/>
            <rect class="cls-14" x="419.13" y="10.23" width="26.68" height="4.1"/>
            <rect class="cls-14" x="419.13" y="14.41" width="26.68" height="4.1"/>
            <rect class="cls-14" x="419.13" y="18.59" width="26.68" height="4.1"/>
          </g>
        </g>
      </g>
      <g id="Info" class="cls-19">
        <g>
          <circle class="cls-13" cx="498.42" cy="177.81" r="14.96"/>
          <polyline class="cls-4" points="496.72 174.57 498.68 174.57 498.68 186.41 500.64 186.41"/>
        </g>
      </g>
      <g id="Info-2" data-name="Info" class="cls-19">
        <g>
          <circle class="cls-13" cx="407.42" cy="254.42" r="14.96"/>
          <polyline class="cls-4" points="405.72 251.18 407.68 251.18 407.68 263.03 409.63 263.03"/>
        </g>
      </g>
      <g id="Info-3" data-name="Info" class="cls-19">
        <g>
          <circle class="cls-3" cx="24.1" cy="74.26" r="21.62"/>
          <polyline class="cls-15" points="21.65 69.58 24.48 69.58 24.48 86.7 27.31 86.7"/>
        </g>
      </g>
      <g id="Text_Input" data-name="Text Input" class="cls-19">
        <g>
          <g>
            <path class="cls-16" d="M519.12,98.94h-10.63v-2.35m75.47-14.24v16.6h-60.63m-14.84-5.57v-11.15h10.63m61.13,0h-56.91"/>
            <polygon class="cls-16" points="523.34 102.66 525.97 102.66 525.97 106.55 515.96 106.55 515.96 102.66 519.12 102.66 519.12 78.5 515.96 78.5 515.96 74.61 525.97 74.61 525.97 78.5 523.34 78.5 523.34 102.66"/>
          </g>
          <line class="cls-16" x1="528.98" y1="95.85" x2="537.51" y2="95.85"/>
          <line class="cls-16" x1="541.97" y1="95.85" x2="550.5" y2="95.85"/>
          <line class="cls-16" x1="555.55" y1="95.85" x2="564.07" y2="95.85"/>
        </g>
      </g>
      <g id="Text_Input-2" data-name="Text Input" class="cls-19">
        <g>
          <g>
            <path class="cls-5" d="M85.25,163.36v1.7h7.65m3.03,0h43.65v-11.94m-54.33,7.93v-8.03h7.65m3.03,0h40.97"/>
            <polygon class="cls-5" points="95.94 167.74 97.83 167.74 97.83 170.55 90.63 170.55 90.63 167.74 92.9 167.74 92.9 150.35 90.63 150.35 90.63 147.55 97.83 147.55 97.83 150.35 95.94 150.35 95.94 167.74"/>
          </g>
          <line class="cls-5" x1="100" y1="162.84" x2="106.14" y2="162.84"/>
          <line class="cls-5" x1="109.35" y1="162.84" x2="115.49" y2="162.84"/>
          <line class="cls-5" x1="119.13" y1="162.84" x2="125.26" y2="162.84"/>
        </g>
      </g>
      <g id="Text_Input-3" data-name="Text Input" class="cls-19">
        <g>
          <g>
            <path class="cls-16" d="M215.51,260.24v2.37h10.63m4.21,0h60.63v-16.6m-75.47,11.02v-11.15h10.63m61.13,0h-56.91"/>
            <polygon class="cls-16" points="230.35 266.32 232.98 266.32 232.98 270.22 222.97 270.22 222.97 266.32 226.13 266.32 226.13 242.16 222.97 242.16 222.97 238.27 232.98 238.27 232.98 242.16 230.35 242.16 230.35 266.32"/>
          </g>
          <line class="cls-16" x1="235.99" y1="259.52" x2="244.52" y2="259.52"/>
          <line class="cls-16" x1="248.98" y1="259.52" x2="257.51" y2="259.52"/>
          <line class="cls-16" x1="262.56" y1="259.52" x2="271.08" y2="259.52"/>
        </g>
      </g>
      <g id="Checkboxes-3" data-name="Checkboxes" class="cls-19">
        <g>
          <line class="cls-6" x1="100.07" y1="46.36" x2="119.31" y2="46.36"/>
          <line class="cls-6" x1="100.07" y1="58.94" x2="119.31" y2="58.94"/>
          <rect class="cls-6" x="86.83" y="41.32" width="10.08" height="10.08"/>
          <rect class="cls-6" x="86.83" y="53.9" width="10.08" height="10.08"/>
        </g>
      </g>
      <path class="cls-1" d="M362.32,307.35c0,3.26-2.64,5.9-5.9,5.9s-5.9-2.64-5.9-5.9,2.64-5.9,5.9-5.9,5.9,2.64,5.9,5.9"/>
      <path class="cls-1" d="M165.64,97.69c0,2.68-2.17,4.85-4.85,4.85s-4.85-2.17-4.85-4.85,2.17-4.85,4.85-4.85,4.85,2.17,4.85,4.85"/>
      <path class="cls-1" d="M531.31,263.49c0,1.57-1.27,2.84-2.84,2.84s-2.84-1.27-2.84-2.84,1.27-2.84,2.84-2.84,2.84,1.27,2.84,2.84"/>
      <path class="cls-1" d="M348.14,67.99c0,1.57-1.27,2.84-2.84,2.84s-2.84-1.27-2.84-2.84,1.27-2.84,2.84-2.84,2.84,1.27,2.84,2.84"/>
      <path class="cls-20" d="M500.38,170.18c0,1.14-.93,2.06-2.09,2.06s-2.09-.92-2.09-2.06,.93-2.06,2.09-2.06,2.09,.92,2.09,2.06h0Z"/>
      <path class="cls-20" d="M409.37,246.79c0,1.14-.93,2.06-2.09,2.06s-2.09-.92-2.09-2.06,.93-2.06,2.09-2.06,2.09,.92,2.09,2.06h0Z"/>
      <path class="cls-20" d="M26.93,63.24c0,1.64-1.35,2.98-3.01,2.98s-3.01-1.33-3.01-2.98,1.35-2.98,3.01-2.98,3.01,1.33,3.01,2.98h0Z"/>
    </g>
  </g>
</svg>