<?xml version="1.0" encoding="UTF-8"?>
<svg id="Layer_2" data-name="Layer 2" xmlns="http://www.w3.org/2000/svg" viewBox="0 0 286.88 286.88">
  <defs>
    <style>
      .cls-1 {
        fill: #0061a6;
      }

      .cls-2 {
        stroke-miterlimit: 10;
        stroke-width: 13px;
      }

      .cls-2, .cls-3, .cls-4 {
        fill: none;
        stroke: #0061a6;
      }

      .cls-3 {
        stroke-width: 7px;
      }

      .cls-3, .cls-4 {
        stroke-linecap: round;
        stroke-linejoin: round;
      }

      .cls-4 {
        stroke-width: 3px;
      }
    </style>
  </defs>
  <g id="Buttons">
    <g id="Platform">
      <g>
        <rect class="cls-3" x="58.44" y="50.7" width="170" height="28.84"/>
        <polygon class="cls-4" points="210.97 62.27 216.59 62.27 213.78 67.98 210.97 62.27"/>
        <rect class="cls-3" x="88.07" y="79.55" width="140.37" height="21.98"/>
        <rect class="cls-3" x="88.07" y="101.94" width="140.37" height="21.98"/>
        <rect class="cls-3" x="88.07" y="124.33" width="140.37" height="21.98"/>
        <rect class="cls-3" x="88.07" y="146.72" width="140.37" height="21.98"/>
      </g>
      <g>
        <path class="cls-1" d="M24.36,198.55c2.95-.54,7.04-.94,12.4-.94,5.96,0,10.32,1.14,13.33,3.62,2.81,2.28,4.56,6.03,4.56,10.25,0,4.62-1.47,8.31-4.09,10.79-3.28,3.15-8.24,4.62-13.53,4.62-1.14,0-2.14-.07-2.95-.13v16.35h-9.72v-44.56Zm9.72,20.5c.74,.2,1.61,.2,2.81,.2,5.09,0,8.04-2.81,8.04-7.3,0-4.09-2.48-6.77-7.3-6.77-1.67,0-2.88,.13-3.55,.33v13.53Z"/>
        <path class="cls-1" d="M60.27,195.87h9.78v47.24h-9.78v-47.24Z"/>
        <path class="cls-1" d="M95.18,243.1l-.54-3.28h-.2c-2.08,2.61-5.16,3.95-8.78,3.95-6.1,0-9.98-4.62-9.98-9.98,0-8.58,7.64-12.46,17.96-12.46v-.54c0-2.01-1.07-4.29-5.56-4.29-3.15,0-6.23,1-8.31,2.28l-1.81-6.37c2.14-1.21,6.36-2.81,11.99-2.81,10.59,0,13.53,6.63,13.53,14v11.66c0,3.01,.13,5.9,.47,7.84h-8.78Zm-1.21-15.68c-4.62,0-8.78,1.21-8.78,5.36,0,2.81,1.74,4.02,3.82,4.02s4.09-1.41,4.76-3.48c.13-.47,.2-1.07,.2-1.61v-4.29Z"/>
        <path class="cls-1" d="M121.44,201.09v9.25h7.1v7.1h-7.1v12.8c0,3.95,1.21,5.49,3.82,5.49,1.21,0,2.14-.13,2.81-.27l.13,7.44c-1.34,.47-3.55,.8-6.23,.8-3.08,0-5.7-.94-7.3-2.61-1.88-1.88-2.81-4.82-2.81-9.58v-14.07h-4.22v-7.1h4.22v-6.97l9.58-2.28Z"/>
        <path class="cls-1" d="M135.11,243.1v-25.66h-4.36v-7.1h4.36v-1.27c0-3.89,1.14-7.97,3.95-10.65,2.34-2.28,5.63-3.22,8.71-3.22,2.21,0,3.95,.33,5.36,.74l-.6,7.5c-.8-.27-1.81-.47-3.15-.47-3.22,0-4.49,2.61-4.49,5.7v1.67h6.3v7.1h-6.23v25.66h-9.85Z"/>
        <path class="cls-1" d="M184.82,226.42c0,12.53-8.17,17.35-15.81,17.35-9.04,0-15.61-6.23-15.61-16.88s6.7-17.29,16.08-17.29,15.34,6.83,15.34,16.82Zm-21.51,.27c0,5.63,1.94,9.98,5.96,9.98,3.62,0,5.56-4.42,5.56-9.98,0-4.76-1.47-9.98-5.63-9.98s-5.9,5.23-5.9,9.98Z"/>
        <path class="cls-1" d="M190.72,220.86c0-4.36-.07-7.64-.27-10.52h8.44l.4,5.63h.2c1.61-4.35,5.23-6.37,8.17-6.37,.94,0,1.41,.07,2.08,.2v9.31c-.74-.13-1.47-.2-2.48-.2-3.22,0-5.76,1.74-6.5,5.03-.13,.67-.27,1.54-.27,2.55v16.62h-9.78v-22.24Z"/>
        <path class="cls-1" d="M214.44,220.59c0-3.95-.13-7.3-.27-10.25h8.31l.47,4.22h.2c1.47-2.21,4.36-4.96,9.25-4.96,4.09,0,7.1,2.08,8.44,5.29h.13c1.07-1.61,2.48-2.88,4.02-3.75,1.61-1,3.48-1.54,5.7-1.54,6.16,0,10.25,4.56,10.25,13.74v19.77h-9.51v-18.29c0-4.42-1.21-7.24-4.36-7.24-2.08,0-3.55,1.41-4.22,3.35-.27,.67-.34,1.68-.34,2.55v19.63h-9.58v-19.03c0-3.62-1.14-6.5-4.22-6.5-2.21,0-3.69,1.67-4.29,3.42-.27,.74-.4,1.67-.4,2.55v19.56h-9.58v-22.51Z"/>
      </g>
      <rect class="cls-2" x="6.5" y="6.5" width="273.88" height="273.88"/>
    </g>
  </g>
</svg>