<?xml version="1.0" encoding="UTF-8"?>
<svg id="Layer_2" data-name="Layer 2" xmlns="http://www.w3.org/2000/svg" viewBox="0 0 286.88 286.88">
  <defs>
    <style>
      .cls-1 {
        fill: #0061a6;
      }

      .cls-2 {
        stroke-miterlimit: 10;
        stroke-width: 13px;
      }

      .cls-2, .cls-3, .cls-4 {
        fill: none;
        stroke: #0061a6;
      }

      .cls-3 {
        stroke-width: 7px;
      }

      .cls-3, .cls-4 {
        stroke-linecap: round;
        stroke-linejoin: round;
      }

      .cls-4 {
        stroke-width: 3px;
      }
    </style>
  </defs>
  <g id="Outlines">
    <g id="Platform">
      <rect class="cls-2" x="6.5" y="6.5" width="273.88" height="273.88"/>
      <g>
        <rect class="cls-3" x="58.44" y="50.7" width="170" height="28.84"/>
        <polygon class="cls-4" points="210.97 62.27 216.59 62.27 213.78 67.98 210.97 62.27"/>
        <rect class="cls-3" x="88.07" y="79.55" width="140.37" height="21.98"/>
        <rect class="cls-3" x="88.07" y="101.94" width="140.37" height="21.98"/>
        <rect class="cls-3" x="88.07" y="124.33" width="140.37" height="21.98"/>
        <rect class="cls-3" x="88.07" y="146.72" width="140.37" height="21.98"/>
      </g>
      <g>
        <path class="cls-1" d="M28.79,195.98c2.87-.49,6.89-.85,12.57-.85s9.82,1.1,12.57,3.29c2.62,2.07,4.39,5.49,4.39,9.52s-1.34,7.44-3.78,9.76c-3.17,2.99-7.87,4.33-13.36,4.33-1.22,0-2.32-.06-3.17-.18v14.7h-9.21v-40.57Zm9.21,18.67c.79,.18,1.77,.24,3.11,.24,4.94,0,7.99-2.5,7.99-6.71,0-3.78-2.62-6.04-7.26-6.04-1.89,0-3.17,.18-3.84,.37v12.14Z"/>
        <path class="cls-1" d="M63.93,193.23h9.27v43.31h-9.27v-43.31Z"/>
        <path class="cls-1" d="M97.66,236.55l-.55-2.99h-.18c-1.95,2.38-5,3.66-8.54,3.66-6.04,0-9.64-4.39-9.64-9.15,0-7.75,6.95-11.47,17.51-11.41v-.43c0-1.59-.85-3.84-5.43-3.84-3.05,0-6.28,1.04-8.24,2.26l-1.71-5.98c2.07-1.16,6.16-2.62,11.59-2.62,9.94,0,13.12,5.86,13.12,12.87v10.37c0,2.87,.12,5.61,.43,7.26h-8.36Zm-1.1-14.09c-4.88-.06-8.66,1.1-8.66,4.7,0,2.38,1.59,3.54,3.66,3.54,2.32,0,4.21-1.52,4.82-3.42,.12-.49,.18-1.04,.18-1.59v-3.23Z"/>
        <path class="cls-1" d="M122.8,198.18v8.54h6.65v6.83h-6.65v10.8c0,3.6,.85,5.25,3.66,5.25,1.16,0,2.07-.12,2.75-.24l.06,7.02c-1.22,.49-3.42,.79-6.04,.79-2.99,0-5.49-1.04-6.95-2.56-1.71-1.77-2.56-4.64-2.56-8.85v-12.2h-3.97v-6.83h3.97v-6.47l9.09-2.07Z"/>
        <path class="cls-1" d="M135.85,236.55v-23h-3.9v-6.83h3.9v-1.16c0-3.6,1.1-7.56,3.78-10,2.32-2.2,5.55-2.99,8.24-2.99,2.07,0,3.66,.24,4.94,.61l-.37,7.14c-.79-.24-1.77-.43-2.99-.43-3.05,0-4.33,2.38-4.33,5.31v1.53h5.98v6.83h-5.92v23h-9.33Z"/>
        <path class="cls-1" d="M184.47,221.3c0,10.92-7.75,15.92-15.74,15.92-8.72,0-15.43-5.73-15.43-15.37s6.34-15.8,15.92-15.8,15.25,6.28,15.25,15.25Zm-21.59,.3c0,5.12,2.13,8.97,6.1,8.97,3.6,0,5.92-3.6,5.92-8.97,0-4.45-1.71-8.97-5.92-8.97-4.45,0-6.1,4.58-6.1,8.97Z"/>
        <path class="cls-1" d="M190.2,216.54c0-4.39-.12-7.26-.24-9.82h7.99l.3,5.49h.24c1.53-4.33,5.19-6.16,8.05-6.16,.85,0,1.28,0,1.95,.12v8.72c-.67-.12-1.46-.24-2.5-.24-3.42,0-5.73,1.83-6.34,4.7-.12,.61-.18,1.34-.18,2.07v15.13h-9.27v-20.01Z"/>
        <path class="cls-1" d="M213.38,216.23c0-3.72-.12-6.89-.24-9.52h7.81l.43,4.03h.18c1.28-1.89,3.9-4.7,9.03-4.7,3.84,0,6.89,1.95,8.17,5.06h.12c1.1-1.52,2.44-2.75,3.84-3.6,1.65-.98,3.48-1.46,5.67-1.46,5.73,0,10.07,4.03,10.07,12.93v17.57h-9.03v-16.23c0-4.33-1.4-6.83-4.39-6.83-2.14,0-3.66,1.46-4.27,3.23-.24,.67-.37,1.65-.37,2.38v17.45h-9.03v-16.72c0-3.78-1.34-6.34-4.27-6.34-2.38,0-3.78,1.83-4.33,3.35-.31,.73-.37,1.59-.37,2.32v17.39h-9.03v-20.31Z"/>
      </g>
    </g>
  </g>
</svg>