<?xml version="1.0" encoding="UTF-8"?>
<svg id="Layer_2" data-name="Layer 2" xmlns="http://www.w3.org/2000/svg" viewBox="0 0 286.88 286.88">
  <defs>
    <style>
      .cls-1 {
        fill: #0062a7;
      }

      .cls-2 {
        stroke-miterlimit: 10;
        stroke-width: 13px;
      }

      .cls-2, .cls-3 {
        fill: none;
        stroke: #0062a7;
      }

      .cls-3 {
        stroke-linecap: round;
        stroke-linejoin: round;
        stroke-width: 7px;
      }
    </style>
  </defs>
  <g id="Outlines">
    <g id="policy">
      <rect class="cls-2" x="6.5" y="6.5" width="273.88" height="273.88"/>
      <g>
        <path class="cls-3" d="M209.81,74.99H114.29m-55.84,35.88v-35.88h39.98m130.02,.49v61.32H114.29m-55.84-8.74v8.74h39.98"/>
        <polygon class="cls-3" points="114.29 150.53 124.2 150.53 124.2 164.91 86.52 164.91 86.52 150.53 98.42 150.53 98.42 61.28 86.52 61.28 86.52 46.91 124.2 46.91 124.2 61.28 114.29 61.28 114.29 150.53"/>
        <line class="cls-3" x1="135.53" y1="125.39" x2="167.61" y2="125.39"/>
        <line class="cls-3" x1="184.41" y1="125.39" x2="216.49" y2="125.39"/>
      </g>
      <g>
        <path class="cls-1" d="M65.97,195.98c2.87-.49,6.89-.85,12.57-.85s9.82,1.1,12.57,3.29c2.62,2.07,4.39,5.49,4.39,9.52s-1.34,7.44-3.78,9.76c-3.17,2.99-7.87,4.33-13.36,4.33-1.22,0-2.32-.06-3.17-.18v14.7h-9.21v-40.57Zm9.21,18.67c.79,.18,1.77,.24,3.11,.24,4.94,0,7.99-2.5,7.99-6.71,0-3.78-2.62-6.04-7.26-6.04-1.89,0-3.17,.18-3.84,.37v12.14Z"/>
        <path class="cls-1" d="M129.11,221.3c0,10.92-7.75,15.92-15.74,15.92-8.72,0-15.43-5.73-15.43-15.37s6.34-15.8,15.92-15.8,15.25,6.28,15.25,15.25Zm-21.6,.3c0,5.12,2.13,8.97,6.1,8.97,3.6,0,5.92-3.6,5.92-8.97,0-4.45-1.71-8.97-5.92-8.97-4.45,0-6.1,4.58-6.1,8.97Z"/>
        <path class="cls-1" d="M134.84,193.23h9.27v43.31h-9.27v-43.31Z"/>
        <path class="cls-1" d="M161.19,198.42c0,2.56-1.95,4.64-5,4.64s-4.88-2.07-4.82-4.64c-.06-2.68,1.89-4.7,4.88-4.7s4.88,2.01,4.94,4.7Zm-9.58,38.13v-29.83h9.27v29.83h-9.27Z"/>
        <path class="cls-1" d="M190.72,235.82c-1.65,.73-4.76,1.34-8.3,1.34-9.64,0-15.8-5.86-15.8-15.25,0-8.72,5.98-15.86,17.08-15.86,2.44,0,5.12,.43,7.08,1.16l-1.46,6.89c-1.1-.49-2.75-.92-5.19-.92-4.88,0-8.05,3.48-7.99,8.36,0,5.49,3.66,8.36,8.17,8.36,2.2,0,3.9-.37,5.31-.92l1.1,6.83Z"/>
        <path class="cls-1" d="M203.71,206.72l4.45,14.64c.49,1.77,1.1,3.96,1.46,5.55h.18c.43-1.59,.92-3.84,1.34-5.55l3.66-14.64h9.94l-6.96,19.64c-4.27,11.83-7.14,16.59-10.49,19.58-3.23,2.81-6.65,3.78-8.97,4.09l-1.95-7.87c1.16-.18,2.62-.73,4.03-1.59,1.4-.73,2.93-2.2,3.84-3.72,.31-.43,.49-.92,.49-1.34,0-.31-.06-.79-.43-1.52l-10.92-27.27h10.31Z"/>
      </g>
    </g>
  </g>
</svg>