<?xml version="1.0" encoding="UTF-8"?>
<svg id="Layer_2" data-name="Layer 2" xmlns="http://www.w3.org/2000/svg" viewBox="0 0 286.88 286.88">
  <defs>
    <style>
      .cls-1 {
        fill: #0061a6;
      }

      .cls-2 {
        stroke-miterlimit: 10;
        stroke-width: 13px;
      }

      .cls-2, .cls-3 {
        fill: none;
        stroke: #0061a6;
      }

      .cls-3 {
        stroke-linecap: round;
        stroke-linejoin: round;
        stroke-width: 7px;
      }
    </style>
  </defs>
  <g id="Outlines">
    <g id="Procedures">
      <rect class="cls-2" x="6.5" y="6.5" width="273.88" height="273.88"/>
      <g>
        <path class="cls-1" d="M24.05,195.45c2.3-.39,5.54-.69,10.09-.69s7.89,.88,10.09,2.65c2.11,1.67,3.53,4.41,3.53,7.64s-1.08,5.98-3.04,7.84c-2.55,2.4-6.32,3.48-10.73,3.48-.98,0-1.86-.05-2.55-.15v11.81h-7.4v-32.58Zm7.4,14.99c.64,.15,1.42,.2,2.5,.2,3.97,0,6.42-2.01,6.42-5.39,0-3.04-2.11-4.85-5.83-4.85-1.52,0-2.55,.15-3.09,.29v9.75Z"/>
        <path class="cls-1" d="M51.84,211.96c0-3.53-.1-5.83-.2-7.89h6.42l.24,4.41h.2c1.22-3.48,4.17-4.95,6.47-4.95,.69,0,1.03,0,1.57,.1v7.01c-.54-.1-1.18-.2-2.01-.2-2.74,0-4.61,1.47-5.1,3.77-.1,.49-.15,1.08-.15,1.67v12.15h-7.45v-16.07Z"/>
        <path class="cls-1" d="M93.73,215.78c0,8.77-6.22,12.79-12.64,12.79-7.01,0-12.4-4.61-12.4-12.35s5.1-12.69,12.79-12.69,12.25,5.05,12.25,12.25Zm-17.34,.25c0,4.12,1.71,7.2,4.9,7.2,2.89,0,4.75-2.89,4.75-7.2,0-3.58-1.37-7.2-4.75-7.2-3.58,0-4.9,3.67-4.9,7.2Z"/>
        <path class="cls-1" d="M116.47,227.44c-1.32,.59-3.82,1.08-6.66,1.08-7.74,0-12.69-4.7-12.69-12.25,0-7.01,4.8-12.74,13.72-12.74,1.96,0,4.12,.34,5.68,.93l-1.18,5.54c-.88-.39-2.21-.74-4.17-.74-3.92,0-6.47,2.79-6.42,6.71,0,4.41,2.94,6.71,6.57,6.71,1.76,0,3.14-.29,4.26-.74l.88,5.49Z"/>
        <path class="cls-1" d="M125.78,218.42c.25,3.09,3.28,4.56,6.76,4.56,2.55,0,4.61-.34,6.61-.98l.98,5.05c-2.45,.98-5.44,1.47-8.67,1.47-8.13,0-12.79-4.7-12.79-12.2,0-6.08,3.77-12.79,12.1-12.79,7.74,0,10.68,6.03,10.68,11.96,0,1.27-.15,2.4-.25,2.94h-15.43Zm8.77-5.1c0-1.81-.78-4.85-4.21-4.85-3.14,0-4.41,2.84-4.61,4.85h8.82Z"/>
        <path class="cls-1" d="M169.14,193.24v27.63c0,2.69,.1,5.54,.2,7.15h-6.62l-.34-3.53h-.1c-1.52,2.69-4.41,4.07-7.5,4.07-5.68,0-10.24-4.85-10.24-12.3-.05-8.08,5-12.74,10.73-12.74,2.94,0,5.24,1.03,6.32,2.69h.1v-12.98h7.45Zm-7.45,20.97c0-.39-.05-.93-.1-1.32-.44-2.01-2.06-3.67-4.36-3.67-3.38,0-5.14,3.04-5.14,6.81,0,4.07,2.01,6.61,5.1,6.61,2.16,0,3.87-1.47,4.31-3.58,.15-.54,.2-1.08,.2-1.71v-3.14Z"/>
        <path class="cls-1" d="M197.71,220.34c0,3.14,.1,5.68,.2,7.69h-6.47l-.34-3.38h-.15c-.93,1.47-3.18,3.92-7.5,3.92-4.85,0-8.43-3.04-8.43-10.44v-14.06h7.5v12.89c0,3.48,1.13,5.59,3.72,5.59,2.06,0,3.23-1.42,3.72-2.6,.2-.44,.24-1.03,.24-1.62v-14.26h7.5v16.27Z"/>
        <path class="cls-1" d="M203.69,211.96c0-3.53-.1-5.83-.2-7.89h6.42l.25,4.41h.2c1.22-3.48,4.16-4.95,6.47-4.95,.69,0,1.03,0,1.57,.1v7.01c-.54-.1-1.18-.2-2.01-.2-2.74,0-4.61,1.47-5.1,3.77-.1,.49-.15,1.08-.15,1.67v12.15h-7.45v-16.07Z"/>
        <path class="cls-1" d="M227.65,218.42c.24,3.09,3.28,4.56,6.76,4.56,2.55,0,4.61-.34,6.62-.98l.98,5.05c-2.45,.98-5.44,1.47-8.67,1.47-8.13,0-12.79-4.7-12.79-12.2,0-6.08,3.77-12.79,12.1-12.79,7.74,0,10.68,6.03,10.68,11.96,0,1.27-.15,2.4-.25,2.94h-15.43Zm8.77-5.1c0-1.81-.78-4.85-4.21-4.85-3.14,0-4.41,2.84-4.61,4.85h8.82Z"/>
        <path class="cls-1" d="M247.74,221.51c1.37,.83,4.21,1.81,6.42,1.81s3.18-.78,3.18-2.01-.74-1.81-3.53-2.74c-4.95-1.67-6.86-4.36-6.81-7.2,0-4.46,3.82-7.84,9.75-7.84,2.79,0,5.29,.64,6.76,1.37l-1.32,5.14c-1.08-.59-3.14-1.37-5.19-1.37-1.81,0-2.84,.73-2.84,1.96,0,1.13,.93,1.71,3.87,2.74,4.56,1.57,6.47,3.87,6.52,7.4,0,4.46-3.53,7.74-10.39,7.74-3.14,0-5.93-.69-7.74-1.67l1.32-5.34Z"/>
      </g>
      <g>
        <line class="cls-3" x1="127.75" y1="73.15" x2="228.44" y2="73.15"/>
        <line class="cls-3" x1="127.75" y1="138.67" x2="228.44" y2="138.67"/>
        <rect class="cls-3" x="58.44" y="46.91" width="52.77" height="52.48"/>
        <rect class="cls-3" x="58.44" y="112.43" width="52.77" height="52.48"/>
      </g>
    </g>
  </g>
</svg>